<mxfile host="65bd71144e">
    <diagram id="U4OfJ-7KWQEH6Wg3tlDG" name="Page-1">
        <mxGraphModel dx="1074" dy="789" grid="1" gridSize="10" guides="1" tooltips="1" connect="1" arrows="1" fold="1" page="1" pageScale="1" pageWidth="827" pageHeight="1169" math="0" shadow="0">
            <root>
                <mxCell id="0"/>
                <mxCell id="1" parent="0"/>
                <mxCell id="4" style="edgeStyle=none;html=1;fontFamily=Helvetica;fontSize=12;fontColor=#FFFFFF;" parent="1" source="2" target="3" edge="1">
                    <mxGeometry relative="1" as="geometry"/>
                </mxCell>
                <mxCell id="2" value="Start" style="strokeWidth=2;html=1;shape=mxgraph.flowchart.terminator;whiteSpace=wrap;" parent="1" vertex="1">
                    <mxGeometry x="80" y="200" width="100" height="60" as="geometry"/>
                </mxCell>
                <mxCell id="17" style="edgeStyle=none;html=1;fontFamily=Helvetica;fontSize=12;fontColor=#FFFFFF;" parent="1" source="3" target="14" edge="1">
                    <mxGeometry relative="1" as="geometry"/>
                </mxCell>
                <mxCell id="3" value="enter &lt;br&gt;fahrenheit&amp;nbsp;" style="shape=parallelogram;html=1;strokeWidth=2;perimeter=parallelogramPerimeter;whiteSpace=wrap;rounded=1;arcSize=12;size=0.23;" parent="1" vertex="1">
                    <mxGeometry x="80" y="300" width="100" height="60" as="geometry"/>
                </mxCell>
                <mxCell id="8" value="Stop" style="strokeWidth=2;html=1;shape=mxgraph.flowchart.terminator;whiteSpace=wrap;" parent="1" vertex="1">
                    <mxGeometry x="190" y="300" width="100" height="60" as="geometry"/>
                </mxCell>
                <mxCell id="18" style="edgeStyle=none;html=1;fontFamily=Helvetica;fontSize=12;fontColor=#FFFFFF;" parent="1" source="14" target="16" edge="1">
                    <mxGeometry relative="1" as="geometry"/>
                </mxCell>
                <mxCell id="14" value="&lt;font color=&quot;#000000&quot;&gt;&lt;span style=&quot;font-family: &amp;#34;lato&amp;#34; , sans-serif ; font-size: 14.6667px ; text-align: left&quot;&gt;celsius = ( f&lt;/span&gt;&lt;span style=&quot;font-family: &amp;#34;arial&amp;#34; , sans-serif ; font-size: 16px ; text-align: left&quot;&gt;ahrenheit&amp;nbsp;- 32) * 5/9&lt;/span&gt;&lt;/font&gt;" style="rounded=1;whiteSpace=wrap;html=1;absoluteArcSize=1;arcSize=14;strokeWidth=2;labelBackgroundColor=none;fontFamily=Helvetica;fontSize=12;fontColor=#FFFFFF;fillColor=default;" parent="1" vertex="1">
                    <mxGeometry x="80" y="400" width="100" height="100" as="geometry"/>
                </mxCell>
                <mxCell id="21" style="edgeStyle=none;html=1;fontFamily=Helvetica;fontSize=12;fontColor=#FFFFFF;" parent="1" source="16" target="8" edge="1">
                    <mxGeometry relative="1" as="geometry"/>
                </mxCell>
                <mxCell id="16" value="&lt;font color=&quot;#000000&quot;&gt;enter&lt;br&gt;celsius&lt;/font&gt;" style="shape=parallelogram;html=1;strokeWidth=2;perimeter=parallelogramPerimeter;whiteSpace=wrap;rounded=1;arcSize=12;size=0.23;labelBackgroundColor=none;fontFamily=Helvetica;fontSize=12;fontColor=#FFFFFF;fillColor=default;" parent="1" vertex="1">
                    <mxGeometry x="190" y="420" width="100" height="60" as="geometry"/>
                </mxCell>
            </root>
        </mxGraphModel>
    </diagram>
</mxfile>